HIERARCHY
ROOT Hips
{
	OFFSET -14.64140 90.27770 -84.91600
	CHANNELS 6 Xposition Yposition Zposition Zrotation Xrotation Yrotation
	JOINT Spine
	{
		OFFSET 0.00000 13.20850 -1.60436
		CHANNELS 3 Zrotation Xrotation Yrotation
		JOINT Spine1
		{
			OFFSET 0.00000 8.61716 0.00000
			CHANNELS 3 Zrotation Xrotation Yrotation
			JOINT Spine2
			{
				OFFSET 0.00000 8.61717 0.00000
				CHANNELS 3 Zrotation Xrotation Yrotation
				JOINT Spine3
				{
					OFFSET 0.00000 8.61717 0.00000
					CHANNELS 3 Zrotation Xrotation Yrotation
					JOINT Neck
					{
						OFFSET 0.00000 11.07920 1.10792
						CHANNELS 3 Zrotation Xrotation Yrotation
						JOINT Neck1
						{
							OFFSET 0.00000 7.08032 0.00000
							CHANNELS 3 Zrotation Xrotation Yrotation
							JOINT Head
							{
								OFFSET 0.00000 7.08031 0.00000
								CHANNELS 3 Zrotation Xrotation Yrotation
								End site
								{
									OFFSET 0.00000 0.00000 0.00000
								}
							}
						}
					}
					JOINT RightShoulder
					{
						OFFSET -0.01000 7.91373 5.19711
						CHANNELS 3 Zrotation Xrotation Yrotation
						JOINT RightArm
						{
							OFFSET -18.41580 0.00000 0.00000
							CHANNELS 3 Zrotation Xrotation Yrotation
							JOINT RightForeArm
							{
								OFFSET -29.11090 0.00000 0.00000
								CHANNELS 3 Zrotation Xrotation Yrotation
								JOINT RightHand
								{
									OFFSET -24.65040 0.00000 0.00000
									CHANNELS 3 Zrotation Xrotation Yrotation
									JOINT RightHandThumb1
									{
										OFFSET -5.35114 -0.85590 3.97906
										CHANNELS 3 Zrotation Xrotation Yrotation
										JOINT RightHandThumb2
										{
											OFFSET -4.52789 0.00000 0.00000
											CHANNELS 3 Zrotation Xrotation Yrotation
											JOINT RightHandThumb3
											{
												OFFSET -2.46976 0.00000 0.00000
												CHANNELS 3 Zrotation Xrotation Yrotation
												End site
												{
													OFFSET 0.00000 0.00000 0.00000
												}
											}
										}
									}
									JOINT RightHandIndex1
									{
										OFFSET -14.26970 0.00000 2.88139
										CHANNELS 3 Zrotation Xrotation Yrotation
										JOINT RightHandIndex2
										{
											OFFSET -5.48836 0.00000 0.00000
											CHANNELS 3 Zrotation Xrotation Yrotation
											JOINT RightHandIndex3
											{
												OFFSET -3.01859 0.00000 0.00000
												CHANNELS 3 Zrotation Xrotation Yrotation
												End site
												{
													OFFSET 0.00000 0.00000 0.00000
												}
											}
										}
									}
									JOINT RightHandMiddle1
									{
										OFFSET -14.26970 0.00000 -0.09147
										CHANNELS 3 Zrotation Xrotation Yrotation
										JOINT RightHandMiddle2
										{
											OFFSET -6.17441 0.00000 0.00000
											CHANNELS 3 Zrotation Xrotation Yrotation
											JOINT RightHandMiddle3
											{
												OFFSET -3.56743 0.00000 0.00000
												CHANNELS 3 Zrotation Xrotation Yrotation
												End site
												{
													OFFSET 0.00000 0.00000 0.00000
												}
											}
										}
									}
									JOINT RightHandRing1
									{
										OFFSET -12.69180 0.00000 -3.06433
										CHANNELS 3 Zrotation Xrotation Yrotation
										JOINT RightHandRing2
										{
											OFFSET -5.62556 0.00000 0.00000
											CHANNELS 3 Zrotation Xrotation Yrotation
											JOINT RightHandRing3
											{
												OFFSET -3.56744 0.00000 0.00000
												CHANNELS 3 Zrotation Xrotation Yrotation
												End site
												{
													OFFSET 0.00000 0.00000 0.00000
												}
											}
										}
									}
									JOINT RightHandPinky1
									{
										OFFSET -11.11390 0.00000 -6.03719
										CHANNELS 3 Zrotation Xrotation Yrotation
										JOINT RightHandPinky2
										{
											OFFSET -4.52789 0.00000 0.00000
											CHANNELS 3 Zrotation Xrotation Yrotation
											JOINT RightHandPinky3
											{
												OFFSET -2.46976 0.00000 0.00000
												CHANNELS 3 Zrotation Xrotation Yrotation
												End site
												{
													OFFSET 0.00000 0.00000 0.00000
												}
											}
										}
									}
								}
							}
						}
					}
					JOINT LeftShoulder
					{
						OFFSET 0.01000 7.91373 5.19711
						CHANNELS 3 Zrotation Xrotation Yrotation
						JOINT LeftArm
						{
							OFFSET 18.41580 0.00000 0.00000
							CHANNELS 3 Zrotation Xrotation Yrotation
							JOINT LeftForeArm
							{
								OFFSET 29.11090 0.00000 0.00000
								CHANNELS 3 Zrotation Xrotation Yrotation
								JOINT LeftHand
								{
									OFFSET 24.65040 0.00000 0.00000
									CHANNELS 3 Zrotation Xrotation Yrotation
									JOINT LeftHandThumb1
									{
										OFFSET 5.35114 -0.85590 3.97906
										CHANNELS 3 Zrotation Xrotation Yrotation
										JOINT LeftHandThumb2
										{
											OFFSET 4.52789 0.00000 0.00000
											CHANNELS 3 Zrotation Xrotation Yrotation
											JOINT LeftHandThumb3
											{
												OFFSET 2.46977 0.00000 0.00000
												CHANNELS 3 Zrotation Xrotation Yrotation
												End site
												{
													OFFSET 0.00000 0.00000 0.00000
												}
											}
										}
									}
									JOINT LeftHandIndex1
									{
										OFFSET 14.26970 0.00000 2.88139
										CHANNELS 3 Zrotation Xrotation Yrotation
										JOINT LeftHandIndex2
										{
											OFFSET 5.48836 0.00000 0.00000
											CHANNELS 3 Zrotation Xrotation Yrotation
											JOINT LeftHandIndex3
											{
												OFFSET 3.01859 0.00000 0.00000
												CHANNELS 3 Zrotation Xrotation Yrotation
												End site
												{
													OFFSET 0.00000 0.00000 0.00000
												}
											}
										}
									}
									JOINT LeftHandMiddle1
									{
										OFFSET 14.26970 0.00000 -0.09147
										CHANNELS 3 Zrotation Xrotation Yrotation
										JOINT LeftHandMiddle2
										{
											OFFSET 6.17440 0.00000 0.00000
											CHANNELS 3 Zrotation Xrotation Yrotation
											JOINT LeftHandMiddle3
											{
												OFFSET 3.56744 0.00000 0.00000
												CHANNELS 3 Zrotation Xrotation Yrotation
												End site
												{
													OFFSET 0.00000 0.00000 0.00000
												}
											}
										}
									}
									JOINT LeftHandRing1
									{
										OFFSET 12.69180 0.00000 -3.06433
										CHANNELS 3 Zrotation Xrotation Yrotation
										JOINT LeftHandRing2
										{
											OFFSET 5.62556 0.00000 0.00000
											CHANNELS 3 Zrotation Xrotation Yrotation
											JOINT LeftHandRing3
											{
												OFFSET 3.56744 0.00000 0.00000
												CHANNELS 3 Zrotation Xrotation Yrotation
												End site
												{
													OFFSET 0.00000 0.00000 0.00000
												}
											}
										}
									}
									JOINT LeftHandPinky1
									{
										OFFSET 11.11390 0.00000 -6.03719
										CHANNELS 3 Zrotation Xrotation Yrotation
										JOINT LeftHandPinky2
										{
											OFFSET 4.52789 0.00000 0.00000
											CHANNELS 3 Zrotation Xrotation Yrotation
											JOINT LeftHandPinky3
											{
												OFFSET 2.46976 0.00000 0.00000
												CHANNELS 3 Zrotation Xrotation Yrotation
												End site
												{
													OFFSET 0.00000 0.00000 0.00000
												}
											}
										}
									}
								}
							}
						}
					}
					JOINT pCube4
					{
						OFFSET 0.00000 10.91090 1.10792
						CHANNELS 3 Zrotation Xrotation Yrotation
						End site
						{
							OFFSET 0.00000 0.00000 0.00000
						}
					}
				}
			}
		}
	}
	JOINT RightUpLeg
	{
		OFFSET -9.98441 0.00000 0.00000
		CHANNELS 3 Zrotation Xrotation Yrotation
		JOINT RightLeg
		{
			OFFSET 0.00000 -42.11790 0.00000
			CHANNELS 3 Zrotation Xrotation Yrotation
			JOINT RightFoot
			{
				OFFSET 0.00000 -45.00020 -0.00001
				CHANNELS 3 Zrotation Xrotation Yrotation
				JOINT RightForeFoot
				{
					OFFSET 0.00000 -3.74820 0.00000
					CHANNELS 3 Zrotation Xrotation Yrotation
					JOINT RightToeBase
					{
						OFFSET 0.00000 0.06325 14.43120
						CHANNELS 3 Zrotation Xrotation Yrotation
						End site
						{
							OFFSET 0.00000 0.00000 0.00000
						}
					}
				}
			}
		}
	}
	JOINT LeftUpLeg
	{
		OFFSET 9.98441 0.00000 0.00000
		CHANNELS 3 Zrotation Xrotation Yrotation
		JOINT LeftLeg
		{
			OFFSET 0.00000 -42.11800 0.00000
			CHANNELS 3 Zrotation Xrotation Yrotation
			JOINT LeftFoot
			{
				OFFSET 0.00000 -45.00070 0.00000
				CHANNELS 3 Zrotation Xrotation Yrotation
				JOINT LeftForeFoot
				{
					OFFSET 0.00000 -3.74824 0.00000
					CHANNELS 3 Zrotation Xrotation Yrotation
					JOINT LeftToeBase
					{
						OFFSET 0.00000 0.06325 14.43110
						CHANNELS 3 Zrotation Xrotation Yrotation
						End site
						{
							OFFSET 0.00000 0.00000 0.00000
						}
					}
				}
			}
		}
	}
}
MOTION
Frames: 4
Frame Time: 0.050000
-0.001287005247770835 -0.014259319952639161 -0.04458848814509099 0.008909110230895653 0.0009226331556242378 -0.014286352794120927 2.8834822383029324 3.810451651258501 -1.7965979543687156 -0.6947781845479819 3.537038407104767 0.3896562451188639 -0.794207880420071 -1.104335466837317 1.6480995870337314 -0.8823858823865499 -0.6935241369495215 -0.1804892080076732 0.3991025979608719 11.904446553588627 -1.9797404505303566 0.1472839428295274 -0.9162391952542598 -6.088770721125921 0.9436037551624507 -17.14698638727727 -0.5542059313202164 -9.66838915353612 3.5649317931976188 -15.71837826192733 76.25758260280736 -9.035532121624678 23.351126121902823 22.16424106945281 4.791919362744622 80.1293221491057 17.142616921678417 -0.43895457886385286 -5.9263261271898715 4.53786542433592 -0.08163374743754429 -1.5561933243998702 0.007529868755571294 -0.03293115333897176 -56.227702189606674 -0.032386695042761655 -0.02804462661756606 -56.27978733646641 -38.784017747591555 -0.04435697910792784 -0.04067294123892014 -0.043600725551646166 0.018799013752749588 -0.008378239411481487 -0.04540190620262037 -0.03343422591101359 0.047974437195282035 -36.681376429760334 0.02170367001169342 0.0028117750751869425 0.004819745043105763 0.0006901787028527892 -0.017180902684327433 0.01112394934475909 -0.018217589991198234 -0.029536912618771338 -19.73576527157127 3.5550387818928525e-05 -0.008741987720257237 0.010298940672475559 -0.024666117459226575 -0.008077959174218595 -0.006301792506910014 0.03081479337248671 0.02174562988793782 24.092657997782485 -0.009695146389732186 0.008558204835551968 28.876425065522856 -0.03771136097959604 0.04710601031434423 28.84090359056779 0.006000082326637309 0.026574942895963998 7.776380056841352 2.0146316869142282 13.792947463911597 -74.94339716416783 7.291891425944506 -14.068001430225063 -11.141963722853504 12.617396850386609 -54.555227891824075 -21.30328488118065 2.3038785771177195 -0.6932611272286079 -0.4796361050952523 0.08236371383784445 -8.075388401769095 0.027587132498039135 0.030846315998316085 44.57784839735102 -0.013796136478352735 -0.003611509470286152 44.60453275645437 12.428616252574155 0.036309162831170146 -0.02501413015950771 0.04137982579807802 0.005844249507408755 0.030291381776069153 0.03015658157130174 -0.02662554095048167 -0.021898666045386907 11.124462782979784 -0.010430320868460132 0.031085898316391507 -0.004703155434352797 0.025933167472503765 0.025207847270464045 0.008106202703118515 -0.009879630914989914 -0.046555432845021394 4.762415473658342 -0.021114055604748102 -0.03329936511123461 0.015346224201883262 0.014283233307796288 0.019685056573088774 0.006572865945435086 -0.04769501070002327 -0.04044559417920428 -5.6002844899522355 0.02841323749567271 -0.026567141712748835 -6.702449140184776 0.008111541968986781 -0.0410920976912466 -6.712888521917476 0.0010938149551888475 0.04326890606490012 0.03453596848271583 -0.0068961829851309974 -0.0036303843021156324 8.073623201068362 3.4973829476077825 -19.22053130495315 -0.01742716388887216 10.38192808102446 0.048716780502361404 -5.648349062904559 -15.620759590681436 3.14918102203167 -0.0015841253095078814 -0.01533085674616053 0.0006689810365659508 -0.02646591433032059 4.686022631410453 -0.002497232179193493 12.474142052621024 -8.257227187346132 6.886178306982846 -0.007415005126136368 46.38571960054576 0.024261508704129405 -4.279652156077616 -14.740446281791574 -3.7893075036699093 0.02346504410960226 0.006810742466259222 -0.03541396792336504 -0.025210105892173162 -10.73330830289972 0.03463967229027647 
0.01783414817063602 -0.019812093386407104 -0.03988487419241085 -0.013380907419443403 0.013452278508844893 0.035248646697281096 2.6201300647484373 3.695396056791825 -1.6924636876954742 -0.7097308348749338 3.510569177626457 0.4428112976273907 -0.7848034349027782 -1.1483655804269277 1.8689953263626429 -0.9071483895485015 -0.6811591008358157 -0.22463575225912844 0.5016202086762667 12.067198593942036 -2.2866350211130952 0.10139178765628576 -0.8976187768659515 -6.924871766855071 0.9653325225666434 -16.979162090678248 -0.6266790078498691 -9.702677144638576 3.5629666260562907 -15.581193998370212 75.38946548097242 -10.566936246079532 25.848138767660373 22.147894446654686 4.9452139176587195 80.98311906682356 16.68035407835955 -0.4787385354658107 -5.515530778064532 4.509028875228289 -0.11842202856666355 -1.6004857420730685 -0.04014536423046321 -0.017710088491491107 -56.25221005179269 0.048896467434661035 0.010291221377228432 -56.22421487186724 -38.748951250230235 -0.020449273959618014 -0.02132560377685463 -0.03495486066974772 -0.02554226295420767 0.0043023824201867305 0.011964717811514092 0.021587918236224864 -0.021960637654056106 -36.72488784605894 -0.023498391421227987 0.028685949381462485 -0.0018414480892590273 0.0239734272647823 0.019123948732090598 0.013833401736710521 0.033517730929719936 0.006357091355408403 -19.758286053675107 -0.014087768915349342 0.020572914582018157 0.017465167517893322 -0.049772576989551974 -0.047890261420896425 -0.023991947416023906 -0.027296921420992524 0.008818127833746484 24.08169049555667 -0.0037217519970836116 -0.025018441728056597 28.841596186355527 0.0019842185227212272 -0.03272363960799061 28.896866032950907 -0.028249436876416387 0.04684842382181284 7.449255115254345 1.9849696990226138 13.761416908194546 -75.13098522980346 5.897505709064406 -14.166948330187596 -8.781633730719852 14.565666336624929 -52.61710366067423 -20.8207758336224 4.630316242824046 -2.0978090007593497 -0.4882766343204623 0.09673257468018873 -8.131687448110805 0.01636126374159228 0.04467542293644335 44.610436987134804 -0.00655917016880222 -0.036197597831041685 44.53061420810368 12.492002452272724 0.014164765065176756 0.04953106832547043 -0.032983049178976986 0.0038108524743374534 -3.6375744707700654e-05 0.004667657908751172 -0.0052020884503284175 -0.0020404585989528792 11.151442047430779 0.004950374455071452 0.04442975632382552 0.043934227495332864 -0.04573176164721067 0.032427144204202105 -0.006189280700283495 -0.04453248403227161 -0.03712171927783788 4.747387215149042 0.011490863972733877 -0.03562019244747898 0.001409432939314724 0.016398828835350272 -0.04753588664869216 -0.02199270160794402 0.04594639858479621 0.025591961528908275 -5.568344449029129 0.01940621273981369 0.029158393799174127 -6.733489769017507 0.017442726453046318 -0.03660820030812845 -6.721893953328923 0.003824886147916891 0.04037688331694697 0.048614865864413506 0.02249511320140771 0.011919387651097246 8.052991678923863 3.5183204614452457 -19.185660331594754 0.03411298333304416 10.345531620250412 -0.014993594091441936 -5.665691638952083 -15.692640531816725 3.1551880472189593 0.03490021873188974 -0.012243452435095989 -0.011234833140400332 0.007400213734099981 4.726364388135064 0.04871801034875787 12.468183260701732 -8.21215439057284 6.837011998648636 0.013355164570878921 46.34227270150898 0.003690550685810079 -4.372245677907648 -14.734248020065973 -3.8175296019544307 -0.030191122084805833 -0.009880841626590654 0.03203799675269639 0.007534692416420489 -10.737288790758587 0.037876575246590764 
0.008910511928466668 0.04280868339318777 -0.006871548395525962 0.03292015854788915 0.027904022223045024 -0.044303574050949895 2.3055541422152057 3.6550264415344063 -1.6879992516282725 -0.7280634021525704 3.565499612472785 0.37687441671136945 -0.8771121563475087 -1.196467450698207 1.959273613821334 -0.8994222379788015 -0.6733702201364679 -0.2170483220784388 0.5346244729269329 12.18492149444099 -2.3355616473514025 0.11474817706482826 -0.7914786259693716 -7.452402801077091 1.0491530949083279 -16.73391770802513 -0.6479165025204594 -9.858930624748684 3.5990333282586007 -15.47636907457813 74.28121505584531 -12.425169870307565 28.346260543245325 21.564879455885833 4.891741228482257 81.09970051501041 16.395106101336133 -0.4342351693241457 -5.121670765392598 4.537950118519866 -0.13415818641455693 -1.603300609157534 -0.01060468058972699 -0.005047262446133007 -56.22130933305565 -0.035465597619394364 0.00826792679746203 -56.26198175067637 -38.78806135835226 0.00901202588354129 -0.04733555840003289 0.034510765247754836 0.014761397217060275 -0.025524642631418838 -0.01837073119572611 0.01230318143300706 0.008127297573828402 -36.67555573049865 0.037432009155898456 0.047186852465810544 0.014740862115398944 0.007271818852160804 -0.013777270307792428 -0.0449774293875646 -0.01785561903902514 0.02103731305886199 -19.74275566669295 -0.00252912609252599 -0.0005043716774661202 -0.03966222591344716 -0.033529143993597216 0.027665009222346316 -0.0201482676541454 -0.023370872897593122 0.005487238127163375 24.057138200948724 0.0038656054452756387 -0.012978610724657356 28.899488159054563 -0.03989753215584677 -0.032707150185205626 28.9021422729445 -4.03761429308988e-05 0.049567655316307774 7.103246916601859 1.8709562934558623 13.780443814279266 -75.26800815230486 4.3191974486121385 -14.06034483092625 -5.33342702505689 16.04186480163306 -49.35175303995559 -20.568748685116823 6.8922259812211495 -3.4777144875154447 -0.4846862379836778 0.08640455390745386 -8.142764931750362 -0.03466896388748611 -0.042105259710131765 44.60737890722842 -0.0012430012241518543 0.01104840479053946 44.593649155372425 12.445776413638493 0.01819218070147064 -0.011662241437414667 -0.013737406939657977 -0.01878392152954986 0.02799006051717193 -0.022781131836701454 0.011538837916013879 0.0018517728931301731 11.117021112256293 0.044032523639936046 0.04220110060583889 -0.026046734387768115 0.016026720012504256 -0.013036222578181432 -0.01512120932742999 0.0429963130983214 0.039085272675593793 4.764395213353441 0.03064649351059435 0.00010130541811781245 -0.03379103398885201 -0.017039106007743467 -0.022525693244002266 0.04419141409093236 0.004552040049984195 0.003348718527043303 -5.607781444318717 0.01531625725155858 -0.013352997788449164 -6.687535485635307 -0.0033817702998189176 0.0166092564708468 -6.675706596526252 -0.04281676620745821 0.0055895071165656144 -0.006453546008702953 0.045115214965061254 0.01396677768325836 8.01410350814077 3.5401422977863213 -19.19951067302359 -0.013360731771958274 10.415948306635938 0.009572201716820244 -5.6354013750110425 -15.706734808158538 3.2032308745658646 0.04369141247489967 0.024216907322769505 0.0014961151978585563 -0.026562817809731493 4.6715155128377 -0.0344274976723362 12.462804915825243 -8.224889825526411 6.86031913293868 -0.04036160551147611 46.37144003575619 -0.024221961295577576 -4.323403448027039 -14.71275732005843 -3.818652476549029 -0.027704075251966203 -0.009181975485236157 0.02756797602853322 -0.028776338162843872 -10.759939092204197 0.02664814274595549 
-0.023640955372776606 -0.0017865999406446132 0.015150835597554497 0.03527794411644752 0.0021997368703264406 -0.04205275327464031 2.0175108265667907 3.470158553644086 -1.6359879204289736 -0.700947313345808 3.6240156082589654 0.41263659645938 -0.8820012531471811 -1.1510350985485154 2.143948143322157 -0.925504331001201 -0.7494078093018314 -0.2131340175158872 0.5742669065993345 12.222237587603766 -2.3400645342552995 0.12737633502482604 -0.6914025164724351 -7.486008528844576 1.0163685499753972 -16.617684854319975 -0.6322350027483444 -9.721197282501352 3.5070990807828206 -15.39749946725447 73.27072112099631 -13.469197391341146 29.58829515363883 20.38964991347494 4.892283932696899 81.92258895389702 16.625087970529027 -0.4640208287558636 -4.900259441154662 4.533474795741374 -0.10003463450628358 -1.5459216721299949 0.04394768369577914 -0.014758823301925392 -56.24623115894124 0.008739820146158976 -0.010455092018856709 -56.26391986452392 -38.74066273341417 -0.006818161740134068 -0.020740041933905048 0.007073616512979225 0.024836413502864505 0.019847585606483135 -0.027728279451376712 -2.8592946019926533e-06 0.03605684272696554 -36.70628780199353 -0.02945166218726633 -0.0315906398194806 0.029992444649533444 0.011814986366528214 -0.012910721935426969 0.02708082456966852 -0.009266541492375185 0.0066869277676068675 -19.78682393521483 -0.044843106226203105 -0.016342713635932437 0.04212003779235185 0.018317272537089497 0.0107313452276655 -0.034976215835352334 -0.021715215665647918 0.04520506271016417 24.103172091447686 0.022953587744812813 -0.029190927178328784 28.88977859753998 0.04913570590107162 -0.023289864476725073 28.87123294734381 -0.01170421135222068 -0.03709226223954299 6.695386270216713 1.8495890756749993 13.82521120273866 -75.47011058334193 3.508777943460469 -13.366528331028604 -1.876253846369257 17.11527477262566 -46.395190318628586 -20.5155576977303 8.832757610206793 -4.5503574488201055 -0.45512188237174644 0.06376758451665406 -8.105658207033592 -0.04123961168150857 -0.01581718300947828 44.55797379462664 -0.02792491342322827 -0.013401564259262705 44.56264925678944 12.460306064838692 0.03405116095642828 0.004656568503018013 0.03673221189156663 0.01266071092690127 0.0009564497097181261 0.040563312797614395 0.049042478324624085 -0.0019606278912017894 11.105451420763687 0.01654157055183475 -0.01245550988530164 -0.04363398201061067 0.03680651435289345 0.012297158834688147 0.028622301731390645 -0.045757136576610964 0.014283455714248756 4.745696331962857 -0.014844128404105617 0.0021919433261459453 0.028578749645882657 -0.010286901852562508 0.03144879463619195 -0.00378149510485683 0.001991319958230536 0.04598210961453496 -5.642811763995284 -0.020361021092658863 0.018483346957676484 -6.725509855753093 -0.02347315667965964 0.040579927584458435 -6.742244659883749 -0.019030343769951767 0.035589662927628246 0.03757727338369932 -0.03697236832583367 0.014513885371639395 8.043209182338293 3.516431443722042 -19.239454827498182 -0.03435784816992847 10.436116591135457 0.052682237540804894 -5.611201846490913 -15.672708779579075 3.225859714561532 -0.023615180080519427 0.023997847515333192 -0.007108965251476427 0.0014155740582233241 4.676381586223337 -0.030493488351346028 12.455802358397314 -8.223767017382505 6.841678125086152 -0.012963099847476721 46.355063829294004 -0.006512070046224455 -4.368114088969347 -14.735929437513166 -3.816481791759741 0.007811699958913595 -0.008052323841394359 0.005606892743406468 0.049770140699093635 -10.717969817285208 0.026390117134644564 
